<mxfile host="app.diagrams.net" modified="2022-03-14T11:16:18.580Z" agent="5.0 (Windows NT 10.0; Win64; x64) AppleWebKit/537.36 (KHTML, like Gecko) Chrome/99.0.4844.51 Safari/537.36" etag="bLGyPx0IMRo-xMWCvyz5" version="17.1.2" type="github">
  <diagram id="VdfxNGfGI-9a-1zbopul" name="Page-1">
    <mxGraphModel dx="1422" dy="754" grid="1" gridSize="10" guides="1" tooltips="1" connect="1" arrows="1" fold="1" page="1" pageScale="1" pageWidth="827" pageHeight="1169" math="0" shadow="0">
      <root>
        <mxCell id="0" />
        <mxCell id="1" parent="0" />
        <mxCell id="c_Y7MV0C_1H0TnpsTDgz-57" style="edgeStyle=orthogonalEdgeStyle;rounded=0;orthogonalLoop=1;jettySize=auto;html=1;exitX=0.25;exitY=1;exitDx=0;exitDy=0;entryX=0.5;entryY=0;entryDx=0;entryDy=0;fontSize=18;" edge="1" parent="1" source="c_Y7MV0C_1H0TnpsTDgz-55" target="c_Y7MV0C_1H0TnpsTDgz-56">
          <mxGeometry relative="1" as="geometry" />
        </mxCell>
        <mxCell id="c_Y7MV0C_1H0TnpsTDgz-59" style="edgeStyle=orthogonalEdgeStyle;rounded=0;orthogonalLoop=1;jettySize=auto;html=1;exitX=0.5;exitY=1;exitDx=0;exitDy=0;entryX=0.5;entryY=0;entryDx=0;entryDy=0;fontSize=18;" edge="1" parent="1" source="c_Y7MV0C_1H0TnpsTDgz-55" target="c_Y7MV0C_1H0TnpsTDgz-58">
          <mxGeometry relative="1" as="geometry" />
        </mxCell>
        <mxCell id="c_Y7MV0C_1H0TnpsTDgz-63" style="edgeStyle=orthogonalEdgeStyle;rounded=0;orthogonalLoop=1;jettySize=auto;html=1;exitX=0.75;exitY=1;exitDx=0;exitDy=0;entryX=0.5;entryY=0;entryDx=0;entryDy=0;fontSize=18;" edge="1" parent="1" source="c_Y7MV0C_1H0TnpsTDgz-55" target="c_Y7MV0C_1H0TnpsTDgz-61">
          <mxGeometry relative="1" as="geometry" />
        </mxCell>
        <mxCell id="c_Y7MV0C_1H0TnpsTDgz-55" value="学生" style="rounded=0;whiteSpace=wrap;html=1;fontSize=18;" vertex="1" parent="1">
          <mxGeometry x="340" y="140" width="100" height="40" as="geometry" />
        </mxCell>
        <mxCell id="c_Y7MV0C_1H0TnpsTDgz-56" value="注册" style="rounded=0;whiteSpace=wrap;html=1;fontSize=18;" vertex="1" parent="1">
          <mxGeometry x="210" y="240" width="30" height="90" as="geometry" />
        </mxCell>
        <mxCell id="c_Y7MV0C_1H0TnpsTDgz-79" style="edgeStyle=orthogonalEdgeStyle;rounded=0;orthogonalLoop=1;jettySize=auto;html=1;exitX=0;exitY=0.75;exitDx=0;exitDy=0;entryX=0.25;entryY=0;entryDx=0;entryDy=0;fontSize=18;" edge="1" parent="1" source="c_Y7MV0C_1H0TnpsTDgz-58" target="c_Y7MV0C_1H0TnpsTDgz-69">
          <mxGeometry relative="1" as="geometry" />
        </mxCell>
        <mxCell id="c_Y7MV0C_1H0TnpsTDgz-80" style="edgeStyle=orthogonalEdgeStyle;rounded=0;orthogonalLoop=1;jettySize=auto;html=1;exitX=0.25;exitY=1;exitDx=0;exitDy=0;entryX=0.5;entryY=0;entryDx=0;entryDy=0;fontSize=18;" edge="1" parent="1" source="c_Y7MV0C_1H0TnpsTDgz-58" target="c_Y7MV0C_1H0TnpsTDgz-70">
          <mxGeometry relative="1" as="geometry" />
        </mxCell>
        <mxCell id="c_Y7MV0C_1H0TnpsTDgz-81" style="edgeStyle=orthogonalEdgeStyle;rounded=0;orthogonalLoop=1;jettySize=auto;html=1;exitX=0.75;exitY=1;exitDx=0;exitDy=0;entryX=0.5;entryY=0;entryDx=0;entryDy=0;fontSize=18;" edge="1" parent="1" source="c_Y7MV0C_1H0TnpsTDgz-58" target="c_Y7MV0C_1H0TnpsTDgz-71">
          <mxGeometry relative="1" as="geometry" />
        </mxCell>
        <mxCell id="c_Y7MV0C_1H0TnpsTDgz-82" style="edgeStyle=orthogonalEdgeStyle;rounded=0;orthogonalLoop=1;jettySize=auto;html=1;exitX=1;exitY=0.75;exitDx=0;exitDy=0;entryX=0.5;entryY=0;entryDx=0;entryDy=0;fontSize=18;" edge="1" parent="1" source="c_Y7MV0C_1H0TnpsTDgz-58" target="c_Y7MV0C_1H0TnpsTDgz-72">
          <mxGeometry relative="1" as="geometry" />
        </mxCell>
        <mxCell id="c_Y7MV0C_1H0TnpsTDgz-58" value="登录" style="rounded=0;whiteSpace=wrap;html=1;fontSize=18;" vertex="1" parent="1">
          <mxGeometry x="375" y="241" width="30" height="89" as="geometry" />
        </mxCell>
        <mxCell id="c_Y7MV0C_1H0TnpsTDgz-61" value="找回密码" style="rounded=0;whiteSpace=wrap;html=1;fontSize=18;" vertex="1" parent="1">
          <mxGeometry x="530" y="241" width="30" height="89" as="geometry" />
        </mxCell>
        <mxCell id="c_Y7MV0C_1H0TnpsTDgz-69" value="查看公告" style="rounded=0;whiteSpace=wrap;html=1;fontSize=18;" vertex="1" parent="1">
          <mxGeometry x="270" y="370" width="30" height="89" as="geometry" />
        </mxCell>
        <mxCell id="c_Y7MV0C_1H0TnpsTDgz-84" style="edgeStyle=orthogonalEdgeStyle;rounded=0;orthogonalLoop=1;jettySize=auto;html=1;exitX=0.5;exitY=1;exitDx=0;exitDy=0;entryX=0.5;entryY=0;entryDx=0;entryDy=0;fontSize=18;" edge="1" parent="1" source="c_Y7MV0C_1H0TnpsTDgz-70" target="c_Y7MV0C_1H0TnpsTDgz-74">
          <mxGeometry relative="1" as="geometry" />
        </mxCell>
        <mxCell id="c_Y7MV0C_1H0TnpsTDgz-85" style="edgeStyle=orthogonalEdgeStyle;rounded=0;orthogonalLoop=1;jettySize=auto;html=1;exitX=0.75;exitY=1;exitDx=0;exitDy=0;entryX=0.25;entryY=0;entryDx=0;entryDy=0;fontSize=18;" edge="1" parent="1" source="c_Y7MV0C_1H0TnpsTDgz-70" target="c_Y7MV0C_1H0TnpsTDgz-75">
          <mxGeometry relative="1" as="geometry" />
        </mxCell>
        <mxCell id="c_Y7MV0C_1H0TnpsTDgz-86" style="edgeStyle=orthogonalEdgeStyle;rounded=0;orthogonalLoop=1;jettySize=auto;html=1;exitX=0.25;exitY=1;exitDx=0;exitDy=0;entryX=0.5;entryY=0;entryDx=0;entryDy=0;fontSize=18;" edge="1" parent="1" source="c_Y7MV0C_1H0TnpsTDgz-70" target="c_Y7MV0C_1H0TnpsTDgz-73">
          <mxGeometry relative="1" as="geometry" />
        </mxCell>
        <mxCell id="c_Y7MV0C_1H0TnpsTDgz-70" value="查看课程" style="rounded=0;whiteSpace=wrap;html=1;fontSize=18;" vertex="1" parent="1">
          <mxGeometry x="340" y="370" width="30" height="89" as="geometry" />
        </mxCell>
        <mxCell id="c_Y7MV0C_1H0TnpsTDgz-71" value="查看评论" style="rounded=0;whiteSpace=wrap;html=1;fontSize=18;" vertex="1" parent="1">
          <mxGeometry x="414" y="370" width="30" height="89" as="geometry" />
        </mxCell>
        <mxCell id="c_Y7MV0C_1H0TnpsTDgz-72" value="修改密码" style="rounded=0;whiteSpace=wrap;html=1;fontSize=18;" vertex="1" parent="1">
          <mxGeometry x="490" y="370" width="30" height="89" as="geometry" />
        </mxCell>
        <mxCell id="c_Y7MV0C_1H0TnpsTDgz-73" value="查看视频" style="rounded=0;whiteSpace=wrap;html=1;fontSize=18;" vertex="1" parent="1">
          <mxGeometry x="292" y="500" width="30" height="130" as="geometry" />
        </mxCell>
        <mxCell id="c_Y7MV0C_1H0TnpsTDgz-74" value="发表评论" style="rounded=0;whiteSpace=wrap;html=1;fontSize=18;" vertex="1" parent="1">
          <mxGeometry x="340" y="500" width="30" height="130" as="geometry" />
        </mxCell>
        <mxCell id="c_Y7MV0C_1H0TnpsTDgz-75" value="下载实验环境" style="rounded=0;whiteSpace=wrap;html=1;fontSize=18;" vertex="1" parent="1">
          <mxGeometry x="398.5" y="500" width="30" height="130" as="geometry" />
        </mxCell>
      </root>
    </mxGraphModel>
  </diagram>
</mxfile>
